:SAMPLES-PER-SECOND 30
:FRAME-RANGE 1-2091
:FULLY-SPECIFIED
:DEGREES
458
root  -32.4067 38.36 27.431 174.099 9.80868 175.848
RightUpLeg  -12.1307 3.76729 -9.25681
RightLeg  68.8382 -0.734817 -2.84497
RightFoot  4.74417 -2.05431 14.6965
RightToes  5.82063e-011 0 -3.6325e-017
Spine  9.13011 -0.919522 -7.90347
Spine1  -0.0181666 -1.39006 -7.10875
HEad  16.036 -10.8399 -0.906102
LeftShoulder1  1.74593 -1.11515 -31.7592
LeftArm  18.3437 4.75449 -30.307
LeftForeArm  -0.166269 -0.443428 -19.527
LeftHand  0.248602 0.454421 -5.96446
RightShoulder  4.72106 6.54864 40.854
RightArm  18.9145 0.0766723 9.50973
RightForeArm  63.2339 -3.1338 16.2047
RightHand  -1.1376 5.42876 -12.4638
LeftUpLeg  -10.4841 8.14611 -8.5184
LeftLeg  21.4853 16.0718 2.24695
LeftFoot  -7.96674 -0.0613152 3.70882
LeftToes  -6.27584e-011 -2.25241e-010 2.80627e-011
459
root  -32.4863 38.5785 26.2307 172.917 8.11176 176.261
RightUpLeg  -14.8295 4.41388 -8.7948
RightLeg  68.1778 -1.53601 -4.9503
RightFoot  3.39648 -1.6495 12.8855
RightToes  5.82063e-011 0 -3.6325e-017
Spine  11.1835 -1.88095 -7.33874
Spine1  -1.58778 -2.36257 -7.85254
HEad  16.2111 -10.6328 -0.127941
LeftShoulder1  1.96162 -2.1191 -28.8209
LeftArm  13.2449 0.403133 -33.1482
LeftForeArm  6.45172 1.14253 -19.1519
LeftHand  0.200556 0.352082 -4.71188
RightShoulder  3.17276 3.7048 38.0678
RightArm  28.3649 -1.87616 8.62391
RightForeArm  59.7294 -0.997127 16.908
RightHand  -1.08229 5.58681 -11.7149
LeftUpLeg  -5.83061 7.04347 -8.22468
LeftLeg  19.1778 15.6725 1.18736
LeftFoot  -9.05426 -0.0152967 3.49508
LeftToes  -6.27584e-011 -2.25241e-010 2.80627e-011
460
root  -32.5892 38.7953 25.0324 172.187 6.1168 177.034
RightUpLeg  -16.6677 4.64039 -7.96787
RightLeg  64.0924 -2.49923 -6.17906
RightFoot  1.27282 -1.34744 12.2273
RightToes  5.82063e-011 0 -3.6325e-017
Spine  12.4133 -3.09292 -6.47314
Spine1  -2.57683 -3.45207 -7.92961
HEad  16.3517 -10.7652 0.996652
LeftShoulder1  2.09293 -2.9407 -26.3466
LeftArm  12.0166 -3.98027 -35.4022
LeftForeArm  8.34418 1.57677 -19.0102
LeftHand  0.156791 0.422325 -3.75672
RightShoulder  2.28457 2.07854 35.0854
RightArm  36.6854 -3.75457 7.85038
RightForeArm  57.0459 1.07063 17.2052
RightHand  -0.96222 5.41 -10.6189
LeftUpLeg  -1.20726 7.61212 -7.47601
LeftLeg  16.0297 13.4088 -0.364619
LeftFoot  -9.93707 0.0166107 3.52154
LeftToes  -6.27584e-011 -2.25241e-010 2.80627e-011
461
root  -32.6994 38.9857 23.8402 172.01 4.22674 177.72
RightUpLeg  -18.3383 4.84823 -7.35504
RightLeg  56.9253 -3.49142 -6.1872
RightFoot  0.355413 -1.19536 11.6564
RightToes  5.82063e-011 0 -3.6325e-017
Spine  13.0668 -3.9701 -5.74015
Spine1  -3.35386 -4.23561 -7.07782
HEad  16.399 -11.797 1.29612
LeftShoulder1  2.21987 -3.57592 -25.1848
LeftArm  12.5032 -8.60675 -36.9928
LeftForeArm  8.09707 1.52795 -18.998
LeftHand  0.123401 0.452678 -2.99131
RightShoulder  1.4129 0.289592 31.477
RightArm  45.7858 -4.65046 7.44216
RightForeArm  53.548 3.74319 17.1826
RightHand  -0.981609 5.61811 -10.6322
LeftUpLeg  2.67504 7.71125 -6.95477
LeftLeg  12.9755 11.2072 -1.29419
LeftFoot  -10.3422 0.0301812 3.67225
LeftToes  -6.27584e-011 -2.25241e-010 2.80627e-011
462
root  -32.8242 39.1609 22.6707 172.341 2.44486 178.152
RightUpLeg  -19.1171 4.55127 -7.11795
RightLeg  46.7033 -4.65358 -5.58278
RightFoot  -0.653496 -1.16572 12.3696
RightToes  5.82063e-011 0 -3.6325e-017
Spine  12.7346 -4.75372 -5.14951
Spine1  -3.24855 -4.85185 -6.11827
HEad  15.67 -13.3154 2.45045
LeftShoulder1  2.28176 -3.95564 -24.3851
LeftArm  16.2005 -13.744 -38.2217
LeftForeArm  5.71306 -0.76101 -18.9642
LeftHand  0.0844527 0.0621652 -1.86479
RightShoulder  0.919654 -0.822455 28.5518
RightArm  50.4323 -5.54764 7.14402
RightForeArm  52.2464 5.06517 17.0075
RightHand  -0.923132 5.51784 -10.1074
LeftUpLeg  6.27981 6.91921 -7.20516
LeftLeg  8.92944 10.2186 -1.40498
LeftFoot  -9.95526 0.0147761 3.72867
LeftToes  -6.27584e-011 -2.25241e-010 2.80627e-011
463
root  -32.9423 39.2565 21.5137 173.283 1.21744 178.314
RightUpLeg  -19.2665 3.83177 -6.91657
RightLeg  33.7316 -6.20311 -4.68005
RightFoot  -0.061008 -1.17608 11.8649
RightToes  5.82063e-011 0 -3.6325e-017
Spine  11.2727 -5.17748 -4.5607
Spine1  -2.31113 -5.0357 -5.39328
HEad  15.2854 -15.1679 3.81494
LeftShoulder1  2.35235 -4.30099 -23.9155
LeftArm  14.4695 -18.3987 -39.1701
LeftForeArm  8.5771 -2.11088 -18.3576
LeftHand  0.0605881 -0.225234 -1.23757
RightShoulder  0.543569 -1.82355 26.7147
RightArm  50.921 -5.74705 6.81851
RightForeArm  52.9692 5.32492 16.9379
RightHand  -0.85785 5.52461 -9.41256
LeftUpLeg  8.85678 6.21821 -7.52949
LeftLeg  5.51964 9.58424 -1.6646
LeftFoot  -9.79369 0.00465369 4.01718
LeftToes  -6.27584e-011 -2.25241e-010 2.80627e-011
